<svg width="40" height="40" viewBox="0 0 40 40" fill="none" xmlns="http://www.w3.org/2000/svg">
<path d="M35.2945 0H4.52493C2.02588 0 0 2.03507 0 4.54545V35.4545C0 37.9649 2.02588 40 4.52493 40H35.2945C37.7935 40 39.8194 37.9649 39.8194 35.4545V4.54545C39.8194 2.03507 37.7935 0 35.2945 0Z" fill="#4286F5"/>
<g style="mix-blend-mode:multiply" opacity="0.3">
<g style="mix-blend-mode:multiply" opacity="0.3">
<path d="M19.1857 13.1345C20.2491 13.1345 21.0138 13.8027 21.0138 14.7709V33.9409C21.0138 34.9091 20.2491 35.5772 19.1857 35.5772C18.1224 35.5772 17.3576 34.9091 17.3576 33.9409V14.7709C17.3576 13.8054 18.1215 13.1345 19.1857 13.1345Z" fill="black"/>
</g>
<g style="mix-blend-mode:multiply" opacity="0.3">
<path d="M16.5748 7.74924C16.5747 7.40781 16.6415 7.06971 16.7716 6.75426C16.9016 6.43881 17.0923 6.1522 17.3327 5.91082C17.5731 5.66943 17.8584 5.47801 18.1725 5.34749C18.4866 5.21697 18.8232 5.14991 19.1631 5.15015C20.6156 5.15015 21.7957 6.29015 21.7957 7.74924C21.7957 9.16288 20.6192 10.3483 19.1631 10.3483C18.4791 10.341 17.8251 10.0648 17.3413 9.57903C16.8575 9.09321 16.5823 8.43637 16.5748 7.74924Z" fill="black"/>
</g>
</g>
<path d="M19.9097 12.7709C20.973 12.7709 21.7377 13.4391 21.7377 14.4072V33.5772C21.7377 34.5454 20.973 35.2136 19.9097 35.2136C18.8463 35.2136 18.0816 34.5454 18.0816 33.5772V14.4072C18.0816 13.4418 18.8454 12.7709 19.9097 12.7709Z" fill="white"/>
<path d="M17.2988 7.38547C17.2987 7.04404 17.3656 6.70594 17.4956 6.39049C17.6257 6.07504 17.8163 5.78843 18.0567 5.54705C18.2971 5.30566 18.5825 5.11424 18.8965 4.98372C19.2106 4.8532 19.5472 4.78614 19.8871 4.78638C21.3396 4.78638 22.5197 5.92638 22.5197 7.38547C22.5197 8.7991 21.3432 9.98456 19.8871 9.98456C19.2031 9.97723 18.5491 9.70107 18.0653 9.21525C17.5815 8.72943 17.3064 8.0726 17.2988 7.38547Z" fill="white"/>
</svg>
